<mxfile host="app.diagrams.net" modified="2024-03-18T09:05:00.739Z" agent="Mozilla/5.0 (Windows NT 10.0; Win64; x64) AppleWebKit/537.36 (KHTML, like Gecko) Chrome/122.0.0.0 Safari/537.36" etag="a1Y8k8UIB2xMXQR7vYPY" version="24.0.7" type="github">
  <diagram name="Seite-1" id="L1mH2jBFT-3KV9MmqBA7">
    <mxGraphModel dx="743" dy="411" grid="1" gridSize="10" guides="1" tooltips="1" connect="1" arrows="1" fold="1" page="1" pageScale="1" pageWidth="827" pageHeight="1169" math="0" shadow="0">
      <root>
        <mxCell id="0" />
        <mxCell id="1" parent="0" />
        <mxCell id="PiLmIGE89PzDEsivXEoT-9" value="" style="rounded=0;whiteSpace=wrap;html=1;fillColor=#fff2cc;strokeColor=#d6b656;" vertex="1" parent="1">
          <mxGeometry x="20" y="80" width="650" height="200" as="geometry" />
        </mxCell>
        <mxCell id="PiLmIGE89PzDEsivXEoT-1" value="gitlab&lt;br&gt;git-server&lt;br&gt;(collaborate)" style="rounded=0;whiteSpace=wrap;html=1;" vertex="1" parent="1">
          <mxGeometry x="220" y="140" width="120" height="60" as="geometry" />
        </mxCell>
        <mxCell id="PiLmIGE89PzDEsivXEoT-3" style="edgeStyle=orthogonalEdgeStyle;rounded=0;orthogonalLoop=1;jettySize=auto;html=1;entryX=0;entryY=0.5;entryDx=0;entryDy=0;" edge="1" parent="1" source="PiLmIGE89PzDEsivXEoT-2" target="PiLmIGE89PzDEsivXEoT-1">
          <mxGeometry relative="1" as="geometry" />
        </mxCell>
        <mxCell id="PiLmIGE89PzDEsivXEoT-2" value="git" style="rounded=0;whiteSpace=wrap;html=1;" vertex="1" parent="1">
          <mxGeometry x="40" y="140" width="120" height="60" as="geometry" />
        </mxCell>
        <mxCell id="PiLmIGE89PzDEsivXEoT-6" value="&lt;div&gt;&lt;br&gt;&lt;/div&gt;docker - image&lt;br&gt;(registry)&amp;nbsp;&lt;div&gt;&lt;br&gt;&lt;/div&gt;" style="rounded=1;whiteSpace=wrap;html=1;" vertex="1" parent="1">
          <mxGeometry x="510" y="140" width="120" height="60" as="geometry" />
        </mxCell>
        <mxCell id="PiLmIGE89PzDEsivXEoT-7" value="" style="shape=flexArrow;endArrow=classic;html=1;rounded=0;exitX=1;exitY=0.5;exitDx=0;exitDy=0;entryX=0;entryY=0.5;entryDx=0;entryDy=0;" edge="1" parent="1" source="PiLmIGE89PzDEsivXEoT-1" target="PiLmIGE89PzDEsivXEoT-6">
          <mxGeometry width="50" height="50" relative="1" as="geometry">
            <mxPoint x="430" y="230" as="sourcePoint" />
            <mxPoint x="440" y="170" as="targetPoint" />
          </mxGeometry>
        </mxCell>
        <mxCell id="PiLmIGE89PzDEsivXEoT-8" value="gitlab ci/cd&lt;br&gt;+ docker tools" style="edgeLabel;html=1;align=center;verticalAlign=middle;resizable=0;points=[];fontStyle=1;fontSize=16;" vertex="1" connectable="0" parent="PiLmIGE89PzDEsivXEoT-7">
          <mxGeometry x="0.098" y="-2" relative="1" as="geometry">
            <mxPoint x="-25" y="-2" as="offset" />
          </mxGeometry>
        </mxCell>
        <mxCell id="PiLmIGE89PzDEsivXEoT-10" value="&lt;b&gt;&lt;font style=&quot;font-size: 15px;&quot;&gt;Der Plan (die 3-Tages-Reise)&lt;/font&gt;&lt;/b&gt;" style="text;html=1;align=center;verticalAlign=middle;whiteSpace=wrap;rounded=0;" vertex="1" parent="1">
          <mxGeometry x="20" y="40" width="210" height="30" as="geometry" />
        </mxCell>
      </root>
    </mxGraphModel>
  </diagram>
</mxfile>
